# xmcd CD database file
#
# Track frame offsets:
#	150
#	23290
#	40067
#	57529
#	72747
#	85422
#	99936
#	117903
#	134699
#	152289
#
# Disc length: 2292 seconds
#
# Revision: 0
# Processed by: cddbd v1.5.2PL0 Copyright (c) Steve Scherf et al.
# Submitted via: CDex 1.72
#
DISCID=7e08f20a
DTITLE=George Nussbaumer and Band - Five Mess More CD 01
DYEAR=2015
DGENRE=Blues
TTITLE0=George Nussbaumer and Band - To Know You Is To Love You
TTITLE1=George Nussbaumer and Band - Ta Douleur
TTITLE2=George Nussbaumer and Band - Giu
TTITLE3=George Nussbaumer - Just As Long As You Are There
TTITLE4=George Nussbaumer and Band - Cry To Me
TTITLE5=George Nussbaumer and Band - Something Special
TTITLE6=George Nussbaumer and Band - Valley Of The Kings
TTITLE7=George Nussbaumer and Band - Cast Away
TTITLE8=George Nussbaumer and Band - Better
TTITLE9=George Nussbaumer and Band - Is That You
EXTD=YEAR: 2015
EXTT0=
EXTT1=
EXTT2=
EXTT3=
EXTT4=
EXTT5=
EXTT6=
EXTT7=
EXTT8=
EXTT9=
PLAYORDER=
